<svg version="1.1" id="Layer_1" xmlns="http://www.w3.org/2000/svg" xmlns:xlink="http://www.w3.org/1999/xlink" x="0px" y="0px"
	 width="100%" viewBox="0 0 512 512" enable-background="new 0 0 512 512" xml:space="preserve">
<path fill="#FFFFFF" opacity="1.000000" stroke="none" 
	d="
M286.000000,513.000000 
	C191.039322,513.000000 96.078651,513.000000 1.058989,513.000000 
	C1.058989,342.443329 1.058989,171.886627 1.058989,1.000000 
	C86.021149,1.000000 171.042725,1.000000 256.431091,1.355120 
	C249.926163,3.330650 246.585144,8.509428 245.138535,14.657751 
	C243.548035,21.417622 247.397659,30.084064 252.987839,32.886726 
	C256.610138,34.702770 256.904694,37.372429 256.936829,40.508484 
	C253.518448,41.025497 250.319794,41.711830 247.087372,41.962746 
	C233.809937,42.993404 221.695389,47.522945 210.234619,54.026379 
	C209.112671,54.663040 207.380219,56.190533 207.564316,56.845493 
	C208.836182,61.370407 210.541611,65.773453 212.091049,70.168365 
	C243.505920,56.072914 275.580261,60.021660 307.630585,62.558189 
	C308.686523,58.281487 309.785278,53.831230 310.893646,49.342079 
	C295.944122,42.394962 280.290741,40.320187 264.215515,41.020966 
	C263.996185,36.038921 263.996185,36.038918 267.858582,34.983410 
	C274.878845,33.064926 281.102570,23.748251 279.981018,16.936499 
	C278.759857,9.519839 275.193604,3.906737 268.000000,1.000000 
	C349.626160,1.000000 431.252319,1.000000 512.937866,1.000000 
	C512.937866,171.666672 512.937866,342.333344 512.937866,513.000000 
	C472.562347,513.000000 432.249023,513.000000 391.462982,512.586670 
	C390.660126,510.611389 390.419250,509.023895 389.980713,507.493073 
	C389.147858,504.585785 388.787231,501.256256 387.049835,499.019043 
	C386.211365,497.939423 382.693726,498.948090 380.388916,498.996124 
	C379.390442,499.016937 378.386658,498.937378 377.393005,499.009766 
	C368.399414,499.664856 359.394836,500.207703 350.418152,501.047546 
	C337.581787,502.248535 324.772705,503.738983 311.939453,504.976349 
	C303.339233,505.805603 294.717407,506.410370 286.000000,507.124207 
	C286.000000,509.362946 286.000000,511.181458 286.000000,513.000000 
M147.603989,308.965363 
	C157.433884,316.118469 167.263779,323.271606 176.389984,329.912659 
	C174.285858,329.292389 171.122192,328.285248 167.916641,327.436096 
	C164.790161,326.607819 162.549179,326.251526 161.837112,330.989044 
	C160.093826,342.587311 157.524353,354.061371 155.184509,366.115234 
	C159.148331,366.544678 162.999222,366.961853 166.992874,367.394501 
	C166.885040,368.199738 166.888000,369.032440 166.654846,369.792725 
	C161.632599,386.170258 156.458771,402.502991 151.633240,418.937988 
	C150.503906,422.784363 149.601242,427.171173 150.399704,430.925385 
	C150.851944,433.051697 155.113907,434.233948 157.374435,436.174072 
	C158.303329,436.971344 158.877274,438.628510 158.928513,439.921661 
	C159.111176,444.531189 158.999924,449.152344 158.999924,453.552277 
	C180.945953,456.168854 202.215759,459.450043 222.451767,467.256531 
	C223.052994,464.121094 223.349518,461.530670 224.131912,459.096405 
	C224.384308,458.311127 225.950546,457.396118 226.854843,457.456268 
	C238.130997,458.206085 249.382904,459.435150 260.667572,459.908478 
	C270.963043,460.340271 281.290924,460.000000 291.743713,460.000000 
	C292.196320,462.100189 292.730408,463.949493 292.971191,465.836243 
	C293.380371,469.042023 294.706055,469.894989 297.574860,468.103912 
	C298.501495,467.525360 299.681702,467.355713 300.742462,466.988861 
	C318.858551,460.723724 337.714203,458.097046 356.999908,455.504822 
	C356.999908,454.679138 357.158142,453.690674 356.974091,452.770660 
	C355.841370,447.108704 357.851318,443.774811 363.509186,441.813263 
	C365.467194,441.134430 368.099945,437.405701 367.705841,435.697113 
	C362.733063,414.137451 357.262604,392.692627 351.809753,370.778320 
	C353.702332,370.455261 356.223907,370.024811 358.788116,369.587097 
	C356.528595,357.610199 354.134216,345.630371 352.090576,333.591003 
	C351.572662,330.539978 351.132507,329.552460 347.845856,330.868164 
	C344.825989,332.077026 341.425537,332.335358 338.192780,333.012451 
	C337.945923,332.509705 337.699066,332.006927 337.452209,331.504150 
	C344.900665,324.954803 355.067596,322.630585 362.849396,316.618134 
	C370.823151,310.457367 379.485809,304.914948 386.370239,297.694000 
	C393.326538,290.397675 399.219482,281.797241 404.197235,272.987762 
	C409.037323,264.421967 413.159882,255.143631 415.698029,245.669312 
	C418.314514,235.902405 418.639740,225.521652 420.147583,214.037552 
	C417.738129,215.256195 417.064056,215.588028 416.398041,215.935303 
	C394.009399,227.609940 370.894043,237.618576 346.631287,244.630157 
	C325.975739,250.599304 305.015472,255.501633 283.462250,256.949463 
	C269.485992,257.888306 255.482040,258.497040 241.480804,258.961151 
	C222.031387,259.605865 202.692795,258.228546 183.495605,254.997879 
	C172.643173,253.171539 161.722000,251.665024 150.964005,249.389374 
	C138.330490,246.716995 125.840401,243.366516 111.754440,239.936707 
	C115.827477,252.171280 119.136269,263.690857 123.497116,274.797333 
	C128.606888,287.811218 137.867523,298.194183 147.603989,308.965363 
M382.966156,125.606842 
	C377.480621,118.737419 372.280304,111.613968 366.442017,105.058754 
	C357.918488,95.488625 347.795868,87.674210 336.680145,81.373642 
	C324.023468,74.199646 310.478455,68.607849 295.974396,67.242638 
	C283.581909,66.076172 270.948975,66.349174 258.502747,67.183578 
	C246.222031,68.006889 233.857742,69.501541 221.853394,72.160904 
	C189.082275,79.420792 159.646820,93.075951 136.702026,118.685143 
	C124.140923,132.704865 115.588913,148.755096 111.154747,166.869629 
	C109.235474,174.710251 108.573395,182.938583 108.112778,191.034744 
	C107.611763,199.841125 107.938972,208.699463 108.057999,217.533081 
	C108.090607,219.953064 108.760681,222.357422 108.985092,224.783127 
	C109.810303,233.703247 110.963593,234.851166 119.573158,237.040619 
	C139.352127,242.070450 159.267303,246.281860 179.643600,248.020142 
	C194.980698,249.328552 210.300659,251.520645 225.653976,251.776901 
	C243.306122,252.071487 260.991608,250.773941 278.652740,249.955765 
	C287.663086,249.538345 296.748749,249.268143 305.630951,247.861664 
	C326.143097,244.613602 346.297302,239.675552 365.979553,232.967606 
	C385.167114,226.428253 403.612732,218.270630 421.095734,207.369049 
	C418.697845,199.784378 416.618347,192.062454 413.802887,184.618881 
	C410.914001,176.981171 407.793182,169.350769 403.903259,162.190140 
	C397.305847,150.045609 390.024567,138.272598 382.966156,125.606842 
M120.975967,294.743652 
	C112.101753,281.795929 100.757454,271.741730 86.135223,264.315369 
	C81.500092,275.085663 77.152725,285.187317 72.656853,295.634064 
	C74.479828,296.581238 76.302338,297.092163 77.525948,298.240967 
	C82.306168,302.728973 87.293640,307.092773 91.436020,312.133881 
	C94.918121,316.371429 93.069664,321.335052 90.143585,325.140503 
	C87.138840,329.048248 82.652161,331.322479 77.560799,330.117737 
	C71.823738,328.760254 66.152275,326.964844 60.652721,324.840881 
	C58.352867,323.952637 57.217651,323.684723 55.955212,326.056854 
	C52.179230,333.151947 48.335560,340.216003 44.301945,347.166626 
	C42.514519,350.246674 42.925297,352.778076 45.446144,354.901764 
	C48.419773,357.406891 51.378593,360.110657 54.780903,361.894806 
	C70.507111,370.141510 86.934532,370.594269 103.758614,365.691193 
	C108.506645,364.307434 113.295654,362.872528 118.168037,362.182404 
	C120.892601,361.796509 123.826881,362.891174 126.480156,363.290619 
	C129.536377,347.847015 132.441467,333.167145 135.296951,318.737915 
	C131.766907,317.606750 128.910583,316.691498 126.070229,315.781342 
	C127.339256,311.304474 125.152649,302.827667 120.975967,294.743652 
M422.000000,321.626801 
	C422.393860,319.911682 422.486755,318.050903 423.233917,316.506744 
	C426.391449,309.981262 431.482056,305.422729 438.061279,302.411713 
	C440.217133,301.425049 443.020630,300.501404 441.564758,297.123779 
	C437.642761,288.024811 433.629578,278.965149 429.653625,269.892212 
	C410.855133,278.157135 392.396790,295.288330 390.765533,319.553040 
	C387.260895,320.447601 383.731110,321.348572 379.591980,322.405090 
	C382.409912,337.259430 385.194763,351.939362 387.958710,366.509125 
	C393.511261,365.979156 398.671844,364.892639 403.749664,365.195160 
	C407.616486,365.425537 411.311188,367.726135 415.198242,368.576141 
	C434.174805,372.725739 452.659973,373.966461 468.442383,359.277802 
	C471.129822,356.776581 471.730957,354.583191 470.090118,351.364380 
	C466.878326,345.063904 463.838684,338.675018 460.775543,332.299774 
	C459.660797,329.979614 458.279175,329.470459 455.789124,330.568542 
	C451.705475,332.369324 447.476440,333.874512 443.231110,335.268005 
	C433.303101,338.526825 422.149628,331.754242 422.000000,321.626801 
M454.000000,93.566399 
	C453.912323,87.541206 449.982147,82.822517 444.370972,82.005493 
	C438.813019,81.196228 432.836517,84.533401 431.113525,89.763588 
	C428.812744,96.747711 427.240387,103.890366 428.005127,111.336060 
	C428.406036,115.239609 425.360352,116.089409 422.757202,116.481262 
	C421.322906,116.697166 419.189758,115.474380 418.119873,114.247650 
	C415.807709,111.596680 414.234711,108.297249 411.902924,105.667847 
	C404.617157,97.452103 396.253448,90.489464 386.545929,84.568481 
	C381.712982,89.523697 377.104462,94.321632 372.409821,99.033791 
	C369.763794,101.689636 369.669220,104.141251 372.319489,106.888527 
	C375.051514,109.720490 377.742615,112.621666 380.165802,115.716370 
	C388.522064,126.388168 397.414215,136.693466 403.047638,149.245560 
	C406.437561,156.798935 410.065308,164.245621 413.633453,171.840836 
	C422.700226,167.072861 431.793243,162.291092 441.054382,157.420898 
	C435.863617,146.847198 430.715485,136.360291 425.312683,125.354591 
	C437.811798,122.463402 434.311066,111.996475 435.202301,103.641075 
	C445.355072,108.499313 453.865234,103.775406 454.000000,93.566399 
M327.383087,463.997192 
	C317.976440,466.655121 308.630219,469.565399 299.131927,471.840759 
	C295.573883,472.693085 294.577179,474.257965 294.996429,477.476990 
	C295.728394,483.096588 294.198334,487.769348 290.519592,492.326111 
	C287.885681,495.588562 286.796143,500.097717 284.591980,504.996521 
	C319.901703,502.028351 353.450684,499.208191 386.999664,496.388031 
	C387.219757,495.813263 387.439819,495.238464 387.659912,494.663696 
	C383.184082,489.353546 379.292450,483.353302 374.066345,478.929474 
	C368.952789,474.600891 362.479095,471.879089 356.126648,468.174561 
	C356.456726,466.254700 356.979797,463.212219 357.540985,459.948151 
	C353.112427,460.319092 349.019867,460.468231 344.988770,461.046326 
	C339.389099,461.849365 333.835541,462.974243 327.383087,463.997192 
M77.998711,157.577621 
	C76.967209,164.126526 76.457901,170.821304 74.686157,177.163422 
	C73.786613,180.383438 74.710464,181.061005 77.035400,182.019089 
	C85.618706,185.556198 94.175308,189.158127 103.313454,192.974365 
	C100.990578,161.113052 111.103729,134.148239 133.516281,112.360649 
	C130.121765,109.217140 127.485779,106.762650 124.834328,104.324974 
	C122.788025,102.443665 121.033333,101.361511 118.297630,103.881645 
	C114.132034,107.719017 109.149620,110.681602 105.062477,114.589249 
	C99.812355,119.608795 95.105087,125.196136 90.049675,130.662460 
	C86.859833,122.546654 85.332047,112.195717 73.768242,115.883003 
	C72.692940,111.720955 72.296074,107.843803 70.688255,104.559471 
	C68.717369,100.533485 62.828259,98.016052 56.249947,100.303108 
	C51.722855,101.877029 48.175747,108.502884 49.008652,113.526009 
	C49.908871,118.955086 54.667793,122.850861 60.228241,123.035622 
	C65.149498,123.199158 70.076035,123.534279 74.964745,124.100250 
	C76.095284,124.231133 77.401474,125.404373 78.077049,126.452370 
	C80.684456,130.497147 83.069214,134.685455 85.367699,138.536697 
	C82.933228,144.579529 80.482826,150.661880 77.998711,157.577621 
M141.032104,477.450134 
	C137.029266,482.568359 133.026413,487.686584 128.215454,493.838135 
	C163.367508,496.801605 196.572800,499.600952 229.810730,502.403076 
	C230.074768,496.375458 227.799133,491.316742 223.884415,486.211731 
	C222.354858,484.217072 221.230347,481.405060 221.127670,478.915558 
	C220.785385,470.615631 221.096252,470.228546 213.030914,468.067322 
	C200.631577,464.744812 188.130341,461.744293 175.562592,459.136047 
	C170.242142,458.031891 164.643250,458.269348 159.129456,457.894226 
	C159.594772,460.645325 160.142227,462.698792 160.208694,464.767731 
	C160.242599,465.822937 159.715118,467.452362 158.925476,467.888794 
	C153.213181,471.045898 147.369019,473.964417 141.032104,477.450134 
M126.000145,507.703308 
	C125.228394,511.541382 127.881477,511.006073 130.174576,511.005493 
	C162.339523,510.997345 194.504471,511.003326 226.669403,510.985535 
	C227.765152,510.984924 228.860764,510.772247 229.917206,510.662506 
	C230.061508,504.005157 230.057953,504.133636 223.809311,503.961121 
	C218.386551,503.811401 212.957245,503.487396 207.558594,502.957550 
	C195.043808,501.729340 182.558228,500.194672 170.036972,499.043854 
	C160.388260,498.157074 150.702469,497.676514 141.034775,496.992584 
	C137.286423,496.727417 132.541367,494.888000 130.074951,496.521179 
	C127.552635,498.191376 127.266617,503.238800 126.000145,507.703308 
M376.002655,329.364716 
	C375.863342,323.535278 375.868500,323.556274 370.141174,324.963135 
	C365.497589,326.103882 360.839661,327.186188 355.617157,328.430389 
	C358.158813,341.996521 360.668243,355.390808 363.220184,369.011841 
	C368.855560,368.659332 374.232452,368.410980 379.591614,367.954193 
	C382.719574,367.687561 383.510925,365.540680 382.948364,362.780975 
	C382.371582,359.951477 381.602173,357.161560 381.009552,354.334930 
	C379.326874,346.309418 377.691406,338.274017 376.002655,329.364716 
M158.330246,327.137726 
	C158.149933,326.203644 158.166672,324.554962 157.759705,324.442749 
	C151.742126,322.783264 145.668320,321.327728 139.291672,319.745392 
	C136.533295,334.160797 133.841385,348.228912 130.925385,363.468109 
	C134.633636,363.656067 138.329514,363.502228 141.902527,364.092407 
	C150.502930,365.512909 150.776382,365.717346 152.452438,357.929077 
	C154.591324,347.990082 156.190857,337.935028 158.330246,327.137726 
z"/>
<path fill="#000000" opacity="1.000000" stroke="none" 
	d="
M267.541931,1.000000 
	C275.193604,3.906737 278.759857,9.519839 279.981018,16.936499 
	C281.102570,23.748251 274.878845,33.064926 267.858582,34.983410 
	C263.996185,36.038918 263.996185,36.038921 264.215515,41.020966 
	C280.290741,40.320187 295.944122,42.394962 310.893646,49.342079 
	C309.785278,53.831230 308.686523,58.281487 307.630585,62.558189 
	C275.580261,60.021660 243.505920,56.072914 212.091049,70.168365 
	C210.541611,65.773453 208.836182,61.370407 207.564316,56.845493 
	C207.380219,56.190533 209.112671,54.663040 210.234619,54.026379 
	C221.695389,47.522945 233.809937,42.993404 247.087372,41.962746 
	C250.319794,41.711830 253.518448,41.025497 256.936829,40.508484 
	C256.904694,37.372429 256.610138,34.702770 252.987839,32.886726 
	C247.397659,30.084064 243.548035,21.417622 245.138535,14.657751 
	C246.585144,8.509428 249.926163,3.330650 256.898926,1.355120 
	C260.361298,1.000000 263.722565,1.000000 267.541931,1.000000 
z"/>
<path fill="#000000" opacity="1.000000" stroke="none" 
	d="
M286.468658,513.000000 
	C286.000000,511.181458 286.000000,509.362946 286.000000,507.124207 
	C294.717407,506.410370 303.339233,505.805603 311.939453,504.976349 
	C324.772705,503.738983 337.581787,502.248535 350.418152,501.047546 
	C359.394836,500.207703 368.399414,499.664856 377.393005,499.009766 
	C378.386658,498.937378 379.390442,499.016937 380.388916,498.996124 
	C382.693726,498.948090 386.211365,497.939423 387.049835,499.019043 
	C388.787231,501.256256 389.147858,504.585785 389.980713,507.493073 
	C390.419250,509.023895 390.660126,510.611389 390.995117,512.586670 
	C356.312439,513.000000 321.624878,513.000000 286.468658,513.000000 
z"/>
<path fill="#000000" opacity="1.000000" stroke="none" 
	d="
M147.313858,308.746460 
	C137.867523,298.194183 128.606888,287.811218 123.497116,274.797333 
	C119.136269,263.690857 115.827477,252.171280 111.754440,239.936707 
	C125.840401,243.366516 138.330490,246.716995 150.964005,249.389374 
	C161.722000,251.665024 172.643173,253.171539 183.495605,254.997879 
	C202.692795,258.228546 222.031387,259.605865 241.480804,258.961151 
	C255.482040,258.497040 269.485992,257.888306 283.462250,256.949463 
	C305.015472,255.501633 325.975739,250.599304 346.631287,244.630157 
	C370.894043,237.618576 394.009399,227.609940 416.398041,215.935303 
	C417.064056,215.588028 417.738129,215.256195 420.147583,214.037552 
	C418.639740,225.521652 418.314514,235.902405 415.698029,245.669312 
	C413.159882,255.143631 409.037323,264.421967 404.197235,272.987762 
	C399.219482,281.797241 393.326538,290.397675 386.370239,297.694000 
	C379.485809,304.914948 370.823151,310.457367 362.849396,316.618134 
	C355.067596,322.630585 344.900665,324.954803 337.452209,331.504150 
	C337.699066,332.006927 337.945923,332.509705 338.192780,333.012451 
	C341.425537,332.335358 344.825989,332.077026 347.845856,330.868164 
	C351.132507,329.552460 351.572662,330.539978 352.090576,333.591003 
	C354.134216,345.630371 356.528595,357.610199 358.788116,369.587097 
	C356.223907,370.024811 353.702332,370.455261 351.809753,370.778320 
	C357.262604,392.692627 362.733063,414.137451 367.705841,435.697113 
	C368.099945,437.405701 365.467194,441.134430 363.509186,441.813263 
	C357.851318,443.774811 355.841370,447.108704 356.974091,452.770660 
	C357.158142,453.690674 356.999908,454.679138 356.999908,455.504822 
	C337.714203,458.097046 318.858551,460.723724 300.742462,466.988861 
	C299.681702,467.355713 298.501495,467.525360 297.574860,468.103912 
	C294.706055,469.894989 293.380371,469.042023 292.971191,465.836243 
	C292.730408,463.949493 292.196320,462.100189 291.743713,460.000000 
	C281.290924,460.000000 270.963043,460.340271 260.667572,459.908478 
	C249.382904,459.435150 238.130997,458.206085 226.854843,457.456268 
	C225.950546,457.396118 224.384308,458.311127 224.131912,459.096405 
	C223.349518,461.530670 223.052994,464.121094 222.451767,467.256531 
	C202.215759,459.450043 180.945953,456.168854 158.999924,453.552277 
	C158.999924,449.152344 159.111176,444.531189 158.928513,439.921661 
	C158.877274,438.628510 158.303329,436.971344 157.374435,436.174072 
	C155.113907,434.233948 150.851944,433.051697 150.399704,430.925385 
	C149.601242,427.171173 150.503906,422.784363 151.633240,418.937988 
	C156.458771,402.502991 161.632599,386.170258 166.654846,369.792725 
	C166.888000,369.032440 166.885040,368.199738 166.992874,367.394501 
	C162.999222,366.961853 159.148331,366.544678 155.184509,366.115234 
	C157.524353,354.061371 160.093826,342.587311 161.837112,330.989044 
	C162.549179,326.251526 164.790161,326.607819 167.916641,327.436096 
	C171.122192,328.285248 174.285858,329.292389 176.389984,329.912659 
	C167.263779,323.271606 157.433884,316.118469 147.313858,308.746460 
M254.425934,432.000000 
	C269.336731,430.332703 284.255035,428.725922 299.142395,426.870605 
	C300.206268,426.738007 301.606537,424.916748 301.899933,423.658966 
	C305.336792,408.922241 308.711487,394.167664 311.754791,379.346344 
	C312.172455,377.312317 311.310852,374.425537 310.008087,372.725494 
	C302.410767,362.811249 294.505127,353.133301 286.717590,343.392975 
	C277.502441,344.599457 268.339386,345.832642 259.166809,346.990631 
	C249.948837,348.154327 240.721405,349.243195 231.536301,350.360199 
	C227.132187,363.624481 222.856461,377.041351 218.159958,390.309265 
	C216.800705,394.149200 217.705521,397.074066 219.629028,400.134155 
	C225.789459,409.934814 231.928223,419.749146 238.118134,429.531189 
	C239.631500,431.922791 241.400208,433.773590 244.767502,433.056702 
	C247.624252,432.448578 250.585922,432.333344 254.425934,432.000000 
z"/>
<path fill="#000000" opacity="1.000000" stroke="none" 
	d="
M382.998444,125.975143 
	C390.024567,138.272598 397.305847,150.045609 403.903259,162.190140 
	C407.793182,169.350769 410.914001,176.981171 413.802887,184.618881 
	C416.618347,192.062454 418.697845,199.784378 421.095734,207.369049 
	C403.612732,218.270630 385.167114,226.428253 365.979553,232.967606 
	C346.297302,239.675552 326.143097,244.613602 305.630951,247.861664 
	C296.748749,249.268143 287.663086,249.538345 278.652740,249.955765 
	C260.991608,250.773941 243.306122,252.071487 225.653976,251.776901 
	C210.300659,251.520645 194.980698,249.328552 179.643600,248.020142 
	C159.267303,246.281860 139.352127,242.070450 119.573158,237.040619 
	C110.963593,234.851166 109.810303,233.703247 108.985092,224.783127 
	C108.760681,222.357422 108.090607,219.953064 108.057999,217.533081 
	C107.938972,208.699463 107.611763,199.841125 108.112778,191.034744 
	C108.573395,182.938583 109.235474,174.710251 111.154747,166.869629 
	C115.588913,148.755096 124.140923,132.704865 136.702026,118.685143 
	C159.646820,93.075951 189.082275,79.420792 221.853394,72.160904 
	C233.857742,69.501541 246.222031,68.006889 258.502747,67.183578 
	C270.948975,66.349174 283.581909,66.076172 295.974396,67.242638 
	C310.478455,68.607849 324.023468,74.199646 336.680145,81.373642 
	C347.795868,87.674210 357.918488,95.488625 366.442017,105.058754 
	C372.280304,111.613968 377.480621,118.737419 382.998444,125.975143 
M243.991150,135.481857 
	C242.787384,133.948303 241.784637,132.187622 240.348495,130.916641 
	C227.163803,119.248039 211.906647,113.974472 194.531494,118.115685 
	C171.595657,123.582214 156.640640,143.013641 156.109848,166.038864 
	C155.898560,175.204086 158.962158,183.709763 163.923904,191.543289 
	C173.112335,206.049835 186.583954,214.146652 203.284790,214.743454 
	C224.914688,215.516373 241.096954,205.355026 250.666885,185.690689 
	C259.036469,168.492859 255.117554,149.013062 243.991150,135.481857 
M312.969849,172.462112 
	C322.793518,181.062042 338.689636,180.616943 348.370422,171.991425 
	C358.243591,163.194489 361.395599,151.835541 358.942200,138.986847 
	C356.411957,125.735619 342.114563,114.279076 329.842224,116.096703 
	C317.203308,117.968628 306.280731,125.728683 303.006134,140.416916 
	C300.268890,152.694717 303.132385,163.299500 312.969849,172.462112 
z"/>
<path fill="#000000" opacity="1.000000" stroke="none" 
	d="
M121.011627,295.125580 
	C125.152649,302.827667 127.339256,311.304474 126.070229,315.781342 
	C128.910583,316.691498 131.766907,317.606750 135.296951,318.737915 
	C132.441467,333.167145 129.536377,347.847015 126.480156,363.290619 
	C123.826881,362.891174 120.892601,361.796509 118.168037,362.182404 
	C113.295654,362.872528 108.506645,364.307434 103.758614,365.691193 
	C86.934532,370.594269 70.507111,370.141510 54.780903,361.894806 
	C51.378593,360.110657 48.419773,357.406891 45.446144,354.901764 
	C42.925297,352.778076 42.514519,350.246674 44.301945,347.166626 
	C48.335560,340.216003 52.179230,333.151947 55.955212,326.056854 
	C57.217651,323.684723 58.352867,323.952637 60.652721,324.840881 
	C66.152275,326.964844 71.823738,328.760254 77.560799,330.117737 
	C82.652161,331.322479 87.138840,329.048248 90.143585,325.140503 
	C93.069664,321.335052 94.918121,316.371429 91.436020,312.133881 
	C87.293640,307.092773 82.306168,302.728973 77.525948,298.240967 
	C76.302338,297.092163 74.479828,296.581238 72.656853,295.634064 
	C77.152725,285.187317 81.500092,275.085663 86.135223,264.315369 
	C100.757454,271.741730 112.101753,281.795929 121.011627,295.125580 
z"/>
<path fill="#000000" opacity="1.000000" stroke="none" 
	d="
M422.000000,322.055481 
	C422.149628,331.754242 433.303101,338.526825 443.231110,335.268005 
	C447.476440,333.874512 451.705475,332.369324 455.789124,330.568542 
	C458.279175,329.470459 459.660797,329.979614 460.775543,332.299774 
	C463.838684,338.675018 466.878326,345.063904 470.090118,351.364380 
	C471.730957,354.583191 471.129822,356.776581 468.442383,359.277802 
	C452.659973,373.966461 434.174805,372.725739 415.198242,368.576141 
	C411.311188,367.726135 407.616486,365.425537 403.749664,365.195160 
	C398.671844,364.892639 393.511261,365.979156 387.958710,366.509125 
	C385.194763,351.939362 382.409912,337.259430 379.591980,322.405090 
	C383.731110,321.348572 387.260895,320.447601 390.765533,319.553040 
	C392.396790,295.288330 410.855133,278.157135 429.653625,269.892212 
	C433.629578,278.965149 437.642761,288.024811 441.564758,297.123779 
	C443.020630,300.501404 440.217133,301.425049 438.061279,302.411713 
	C431.482056,305.422729 426.391449,309.981262 423.233917,316.506744 
	C422.486755,318.050903 422.393860,319.911682 422.000000,322.055481 
z"/>
<path fill="#000000" opacity="1.000000" stroke="none" 
	d="
M454.000000,93.997665 
	C453.865234,103.775406 445.355072,108.499313 435.202301,103.641075 
	C434.311066,111.996475 437.811798,122.463402 425.312683,125.354591 
	C430.715485,136.360291 435.863617,146.847198 441.054382,157.420898 
	C431.793243,162.291092 422.700226,167.072861 413.633453,171.840836 
	C410.065308,164.245621 406.437561,156.798935 403.047638,149.245560 
	C397.414215,136.693466 388.522064,126.388168 380.165802,115.716370 
	C377.742615,112.621666 375.051514,109.720490 372.319489,106.888527 
	C369.669220,104.141251 369.763794,101.689636 372.409821,99.033791 
	C377.104462,94.321632 381.712982,89.523697 386.545929,84.568481 
	C396.253448,90.489464 404.617157,97.452103 411.902924,105.667847 
	C414.234711,108.297249 415.807709,111.596680 418.119873,114.247650 
	C419.189758,115.474380 421.322906,116.697166 422.757202,116.481262 
	C425.360352,116.089409 428.406036,115.239609 428.005127,111.336060 
	C427.240387,103.890366 428.812744,96.747711 431.113525,89.763588 
	C432.836517,84.533401 438.813019,81.196228 444.370972,82.005493 
	C449.982147,82.822517 453.912323,87.541206 454.000000,93.997665 
z"/>
<path fill="#000000" opacity="1.000000" stroke="none" 
	d="
M327.822662,463.979248 
	C333.835541,462.974243 339.389099,461.849365 344.988770,461.046326 
	C349.019867,460.468231 353.112427,460.319092 357.540985,459.948151 
	C356.979797,463.212219 356.456726,466.254700 356.126648,468.174561 
	C362.479095,471.879089 368.952789,474.600891 374.066345,478.929474 
	C379.292450,483.353302 383.184082,489.353546 387.659912,494.663696 
	C387.439819,495.238464 387.219757,495.813263 386.999664,496.388031 
	C353.450684,499.208191 319.901703,502.028351 284.591980,504.996521 
	C286.796143,500.097717 287.885681,495.588562 290.519592,492.326111 
	C294.198334,487.769348 295.728394,483.096588 294.996429,477.476990 
	C294.577179,474.257965 295.573883,472.693085 299.131927,471.840759 
	C308.630219,469.565399 317.976440,466.655121 327.822662,463.979248 
z"/>
<path fill="#000000" opacity="1.000000" stroke="none" 
	d="
M78.015564,157.160934 
	C80.482826,150.661880 82.933228,144.579529 85.367699,138.536697 
	C83.069214,134.685455 80.684456,130.497147 78.077049,126.452370 
	C77.401474,125.404373 76.095284,124.231133 74.964745,124.100250 
	C70.076035,123.534279 65.149498,123.199158 60.228241,123.035622 
	C54.667793,122.850861 49.908871,118.955086 49.008652,113.526009 
	C48.175747,108.502884 51.722855,101.877029 56.249947,100.303108 
	C62.828259,98.016052 68.717369,100.533485 70.688255,104.559471 
	C72.296074,107.843803 72.692940,111.720955 73.768242,115.883003 
	C85.332047,112.195717 86.859833,122.546654 90.049675,130.662460 
	C95.105087,125.196136 99.812355,119.608795 105.062477,114.589249 
	C109.149620,110.681602 114.132034,107.719017 118.297630,103.881645 
	C121.033333,101.361511 122.788025,102.443665 124.834328,104.324974 
	C127.485779,106.762650 130.121765,109.217140 133.516281,112.360649 
	C111.103729,134.148239 100.990578,161.113052 103.313454,192.974365 
	C94.175308,189.158127 85.618706,185.556198 77.035400,182.019089 
	C74.710464,181.061005 73.786613,180.383438 74.686157,177.163422 
	C76.457901,170.821304 76.967209,164.126526 78.015564,157.160934 
z"/>
<path fill="#000000" opacity="1.000000" stroke="none" 
	d="
M141.299347,477.204285 
	C147.369019,473.964417 153.213181,471.045898 158.925476,467.888794 
	C159.715118,467.452362 160.242599,465.822937 160.208694,464.767731 
	C160.142227,462.698792 159.594772,460.645325 159.129456,457.894226 
	C164.643250,458.269348 170.242142,458.031891 175.562592,459.136047 
	C188.130341,461.744293 200.631577,464.744812 213.030914,468.067322 
	C221.096252,470.228546 220.785385,470.615631 221.127670,478.915558 
	C221.230347,481.405060 222.354858,484.217072 223.884415,486.211731 
	C227.799133,491.316742 230.074768,496.375458 229.810730,502.403076 
	C196.572800,499.600952 163.367508,496.801605 128.215454,493.838135 
	C133.026413,487.686584 137.029266,482.568359 141.299347,477.204285 
z"/>
<path fill="#000000" opacity="1.000000" stroke="none" 
	d="
M126.000900,507.255585 
	C127.266617,503.238800 127.552635,498.191376 130.074951,496.521179 
	C132.541367,494.888000 137.286423,496.727417 141.034775,496.992584 
	C150.702469,497.676514 160.388260,498.157074 170.036972,499.043854 
	C182.558228,500.194672 195.043808,501.729340 207.558594,502.957550 
	C212.957245,503.487396 218.386551,503.811401 223.809311,503.961121 
	C230.057953,504.133636 230.061508,504.005157 229.917206,510.662506 
	C228.860764,510.772247 227.765152,510.984924 226.669403,510.985535 
	C194.504471,511.003326 162.339523,510.997345 130.174576,511.005493 
	C127.881477,511.006073 125.228394,511.541382 126.000900,507.255585 
z"/>
<path fill="#000000" opacity="1.000000" stroke="none" 
	d="
M376.019989,329.803589 
	C377.691406,338.274017 379.326874,346.309418 381.009552,354.334930 
	C381.602173,357.161560 382.371582,359.951477 382.948364,362.780975 
	C383.510925,365.540680 382.719574,367.687561 379.591614,367.954193 
	C374.232452,368.410980 368.855560,368.659332 363.220184,369.011841 
	C360.668243,355.390808 358.158813,341.996521 355.617157,328.430389 
	C360.839661,327.186188 365.497589,326.103882 370.141174,324.963135 
	C375.868500,323.556274 375.863342,323.535278 376.019989,329.803589 
z"/>
<path fill="#000000" opacity="1.000000" stroke="none" 
	d="
M158.176544,327.533875 
	C156.190857,337.935028 154.591324,347.990082 152.452438,357.929077 
	C150.776382,365.717346 150.502930,365.512909 141.902527,364.092407 
	C138.329514,363.502228 134.633636,363.656067 130.925385,363.468109 
	C133.841385,348.228912 136.533295,334.160797 139.291672,319.745392 
	C145.668320,321.327728 151.742126,322.783264 157.759705,324.442749 
	C158.166672,324.554962 158.149933,326.203644 158.176544,327.533875 
z"/>
<path fill="#FFFFFF" opacity="1.000000" stroke="none" 
	d="
M253.963562,432.000000 
	C250.585922,432.333344 247.624252,432.448578 244.767502,433.056702 
	C241.400208,433.773590 239.631500,431.922791 238.118134,429.531189 
	C231.928223,419.749146 225.789459,409.934814 219.629028,400.134155 
	C217.705521,397.074066 216.800705,394.149200 218.159958,390.309265 
	C222.856461,377.041351 227.132187,363.624481 231.536301,350.360199 
	C240.721405,349.243195 249.948837,348.154327 259.166809,346.990631 
	C268.339386,345.832642 277.502441,344.599457 286.717590,343.392975 
	C294.505127,353.133301 302.410767,362.811249 310.008087,372.725494 
	C311.310852,374.425537 312.172455,377.312317 311.754791,379.346344 
	C308.711487,394.167664 305.336792,408.922241 301.899933,423.658966 
	C301.606537,424.916748 300.206268,426.738007 299.142395,426.870605 
	C284.255035,428.725922 269.336731,430.332703 253.963562,432.000000 
M291.349365,405.136353 
	C293.896484,402.806641 297.300537,400.912537 298.764557,398.032288 
	C300.434784,394.746399 300.384583,390.583435 301.067719,386.798981 
	C302.211792,380.460754 301.015686,374.722046 296.463745,369.977356 
	C289.308746,362.519348 280.051239,364.532776 271.226898,363.937561 
	C270.116669,381.524750 269.043274,398.528473 267.961426,415.666046 
	C272.519470,415.666046 276.720154,415.666046 281.110901,415.666046 
	C281.110901,412.696533 281.110901,410.061432 281.110901,407.332611 
	C284.450989,406.782349 287.621307,406.260040 291.349365,405.136353 
M235.000153,397.445190 
	C236.409409,404.974457 237.818665,412.503754 239.212082,419.948517 
	C242.938110,418.867645 246.262466,418.171509 249.329849,416.869751 
	C250.421646,416.406433 251.681381,414.344666 251.500977,413.234009 
	C250.833572,409.125732 249.818527,405.035645 248.494949,401.085876 
	C247.629318,398.502625 248.219101,397.487671 250.761276,396.962494 
	C253.107178,396.477875 255.359055,395.255310 257.700806,395.102966 
	C260.838104,394.898834 261.570068,393.110413 260.861664,390.820374 
	C260.117065,388.413300 259.774536,385.048584 255.553680,386.016174 
	C251.539886,386.936310 247.453552,387.539856 243.383591,388.285461 
	C242.974930,384.874115 242.653305,382.189301 242.287918,379.139130 
	C248.103714,377.295990 254.108627,375.392914 260.340912,373.417786 
	C259.715302,371.790497 259.072632,370.641235 258.837982,369.413940 
	C258.025818,365.166016 255.949356,364.410980 251.916077,365.902283 
	C246.369003,367.953278 240.658188,369.967987 234.847992,370.770203 
	C230.325592,371.394592 230.646622,373.945953 231.089005,376.628357 
	C232.190170,383.305206 233.671280,389.919464 235.000153,397.445190 
z"/>
<path fill="#FFFFFF" opacity="1.000000" stroke="none" 
	d="
M244.247971,135.742706 
	C255.117554,149.013062 259.036469,168.492859 250.666885,185.690689 
	C241.096954,205.355026 224.914688,215.516373 203.284790,214.743454 
	C186.583954,214.146652 173.112335,206.049835 163.923904,191.543289 
	C158.962158,183.709763 155.898560,175.204086 156.109848,166.038864 
	C156.640640,143.013641 171.595657,123.582214 194.531494,118.115685 
	C211.906647,113.974472 227.163803,119.248039 240.348495,130.916641 
	C241.784637,132.187622 242.787384,133.948303 244.247971,135.742706 
z"/>
<path fill="#FFFFFF" opacity="1.000000" stroke="none" 
	d="
M312.661743,172.247665 
	C303.132385,163.299500 300.268890,152.694717 303.006134,140.416916 
	C306.280731,125.728683 317.203308,117.968628 329.842224,116.096703 
	C342.114563,114.279076 356.411957,125.735619 358.942200,138.986847 
	C361.395599,151.835541 358.243591,163.194489 348.370422,171.991425 
	C338.689636,180.616943 322.793518,181.062042 312.661743,172.247665 
z"/>
<path fill="#000000" opacity="1.000000" stroke="none" 
	d="
M291.070496,405.437042 
	C287.621307,406.260040 284.450989,406.782349 281.110901,407.332611 
	C281.110901,410.061432 281.110901,412.696533 281.110901,415.666046 
	C276.720154,415.666046 272.519470,415.666046 267.961426,415.666046 
	C269.043274,398.528473 270.116669,381.524750 271.226898,363.937561 
	C280.051239,364.532776 289.308746,362.519348 296.463745,369.977356 
	C301.015686,374.722046 302.211792,380.460754 301.067719,386.798981 
	C300.384583,390.583435 300.434784,394.746399 298.764557,398.032288 
	C297.300537,400.912537 293.896484,402.806641 291.070496,405.437042 
M290.041504,379.388519 
	C286.583557,378.365082 283.125610,377.341675 279.345825,376.222992 
	C279.345825,383.194702 279.345825,389.056213 279.345825,394.705139 
	C284.102081,394.705139 288.506317,394.705139 292.949493,394.705139 
	C292.131500,389.629517 291.361053,384.848877 290.041504,379.388519 
z"/>
<path fill="#000000" opacity="1.000000" stroke="none" 
	d="
M235.000000,397.002014 
	C233.671280,389.919464 232.190170,383.305206 231.089005,376.628357 
	C230.646622,373.945953 230.325592,371.394592 234.847992,370.770203 
	C240.658188,369.967987 246.369003,367.953278 251.916077,365.902283 
	C255.949356,364.410980 258.025818,365.166016 258.837982,369.413940 
	C259.072632,370.641235 259.715302,371.790497 260.340912,373.417786 
	C254.108627,375.392914 248.103714,377.295990 242.287918,379.139130 
	C242.653305,382.189301 242.974930,384.874115 243.383591,388.285461 
	C247.453552,387.539856 251.539886,386.936310 255.553680,386.016174 
	C259.774536,385.048584 260.117065,388.413300 260.861664,390.820374 
	C261.570068,393.110413 260.838104,394.898834 257.700806,395.102966 
	C255.359055,395.255310 253.107178,396.477875 250.761276,396.962494 
	C248.219101,397.487671 247.629318,398.502625 248.494949,401.085876 
	C249.818527,405.035645 250.833572,409.125732 251.500977,413.234009 
	C251.681381,414.344666 250.421646,416.406433 249.329849,416.869751 
	C246.262466,418.171509 242.938110,418.867645 239.212082,419.948517 
	C237.818665,412.503754 236.409409,404.974457 235.000000,397.002014 
z"/>
<path fill="#FFFFFF" opacity="1.000000" stroke="none" 
	d="
M290.316040,379.728394 
	C291.361053,384.848877 292.131500,389.629517 292.949493,394.705139 
	C288.506317,394.705139 284.102081,394.705139 279.345825,394.705139 
	C279.345825,389.056213 279.345825,383.194702 279.345825,376.222992 
	C283.125610,377.341675 286.583557,378.365082 290.316040,379.728394 
z"/>
</svg>